<?xml version="1.0" ?>

<!-- Uploaded to: SVG Repo, www.svgrepo.com, Generator: SVG Repo Mixer Tools -->
<svg width="800px" height="800px" viewBox="0 0 64 64" xmlns="http://www.w3.org/2000/svg">

<g id="a"/>

<g id="b"/>

<g id="c"/>

<g id="d"/>

<g id="e"/>

<g id="f"/>

<g id="g"/>

<g id="h"/>

<g id="i"/>

<g id="j"/>

<g id="k"/>

<g id="l"/>

<g id="m"/>

<g id="n"/>

<g id="o">

    <rect width="64" height="64" rx="14" fill="#EAF0F7"/>

<path d="M45.2,32.37l-10.63,.65,2.16,6.2,4.56,2,3.85-.2,.07-8.65Z" fill="#d7e5eb" id="p"/>

<path d="M31.91,53.7l-6.3-1.64-7.88,6.81c.2,.09,.41,.14,.64,.14h17.6c.38,0,.57-.46,.31-.73l-4.37-4.57Z" fill="#d7e5eb" id="q"/>

<path d="M31.91,53.7l6.72-9.01-1-8.9-1.94-5.36-8.37-3.97-13.01,4.85c-.61,.23-1.09,.69-1.35,1.28l-3.36,7.64c-.26,.59-.25,1.26,.01,1.84l7.33,16.01c.16,.36,.45,.63,.79,.78l14.18-5.16h0Z" fill="#e2eef2" id="r"/>

<path d="M45.14,41.02l-4.42,1.08-1.06,4.18,4.45,1.37c.48,.15,.97-.21,.97-.71l.05-5.92Z" fill="#e2eef2" id="s"/>

<path d="M45.14,41.02l-7.51-5.23-5.72,17.91,13.22-12.68Z" fill="#f0f4f6" id="t"/>

<path d="M27.11,5.28c-.13-.17-.24-.26-.34-.28-.02,0-.04,0-.05,0-.12,.02-.19,.18-.18,.48l.78,20.97,5.12-4.66,.88-8.38c-2.07-2.71-4.14-5.43-6.21-8.14h0Z" fill="#e2eef2" id="u"/>

<path d="M27.32,26.46l6.51,5.89,3.81,3.45,7.57-3.42h0l6.65-3.01c.59-.27,1.04-.76,1.26-1.37l1.42-3.93c.19-.54-.06-1.13-.58-1.36l-20.63-9.29-6,13.04Z" fill="#f0f4f6" id="v"/>

<path d="M17.73,58.86l16.36-2.88-2.18-2.29-14.18,5.17Z" fill="#c0d8df" id="w"/>

<path d="M45.14,41.02l-3.24,5.95-2.23-.68,5.47-5.27Z" fill="#d7e5eb" id="x"/>

<path d="M12.04,32.18l-3.36,7.64c-.37,.85-.37,1.82,.02,2.66l7.33,16.01c.42,.91,1.34,1.5,2.34,1.5h17.6c.57,0,1.09-.34,1.31-.87,.22-.53,.11-1.13-.28-1.55l-3.68-3.85,6.6-6.31,3.89,1.2c.93,.29,1.91-.24,2.19-1.17,.05-.16,.07-.33,.07-.49l.11-13.94,6.07-2.74c.83-.38,1.48-1.08,1.79-1.94l1.42-3.93c.37-1.02-.12-2.17-1.11-2.62l-20.4-9.18-6.06-7.94c-.27-.36-.59-.58-.93-.65h0c-.35-.07-.71,.02-.98,.25-.33,.28-.48,.7-.46,1.25l.75,20.25-12.34,4.6c-.85,.32-1.55,.98-1.92,1.81Zm22.6,25.82h-11.61l8.61-3.14,3,3.14Zm9.51-18.88l-4.51-3.14,4.54-2.05-.04,5.2Zm-.59,2.03l-4.59,4.42h0l-4.91,4.7,4.11-12.88,5.39,3.76Zm-1.98,4.69l2.54-2.45-.02,3.22-2.52-.77Zm12.01-22.1l-1.42,3.93c-.13,.35-.39,.64-.73,.79l-13.63,6.15-9.28-8.4,5.28-11.47,19.73,8.88s.07,.07,.05,.11Zm-21.43-10.18l-4,8.68-.54-14.64,4.54,5.96Zm-5.06,14.06l9.39,8.49-5.37,16.83-13.17,4.8s-.07-.02-.09-.06l-7.33-16.01c-.15-.33-.15-.7,0-1.03l3.36-7.64c.15-.34,.44-.61,.79-.74l12.44-4.64Z"/>

</g>

<g id="y"/>

<g id="a`"/>

<g id="aa"/>

<g id="ab"/>

<g id="ac"/>

<g id="ad"/>

<g id="ae"/>

<g id="af"/>

<g id="ag"/>

<g id="ah"/>

<g id="ai"/>

<g id="aj"/>

<g id="ak"/>

<g id="al"/>

<g id="am"/>

<g id="an"/>

<g id="ao"/>

<g id="ap"/>

<g id="aq"/>

<g id="ar"/>

<g id="as"/>

<g id="at"/>

<g id="au"/>

<g id="av"/>

<g id="aw"/>

<g id="ax"/>

<g id="ay"/>

<g id="b`"/>

<g id="ba"/>

<g id="bb"/>

<g id="bc"/>

<g id="bd"/>

<g id="be"/>

<g id="bf"/>

<g id="bg"/>

</svg>